<svg xmlns="http://www.w3.org/2000/svg" xmlns:xlink="http://www.w3.org/1999/xlink" viewBox="0 0 512 512" style="fill: rgb(0, 0, 0);" original_string_length="1222">
<g id="__id125_s5niqw6kcy">
<path style="stroke: none; fill-rule: nonzero; fill: rgb(0, 0, 0); fill-opacity: 1;" d="M 152.75 32 C 86.25 32 32 86.25 32 152.75 L 32 327.375 C 32 393.75 86.25 448 152.75 448 L 327.375 448 C 393.75 448 448 393.75 448 327.25 L 448 152.75 C 448 86.25 393.75 32 327.25 32 Z M 152.75 64 L 327.25 64 C 376.5 64 416 103.5 416 152.75 L 416 327.25 C 416 376.5 376.5 416 327.375 416 L 152.75 416 C 103.5 416 64 376.5 64 327.375 L 64 152.75 C 64 103.5 103.5 64 152.75 64 Z M 368 96 C 359.125 96 352 103.125 352 112 C 352 120.875 359.125 128 368 128 C 376.875 128 384 120.875 384 112 C 384 103.125 376.875 96 368 96 Z M 240 128 C 178.375 128 128 178.375 128 240 C 128 301.625 178.375 352 240 352 C 301.625 352 352 301.625 352 240 C 352 178.375 301.625 128 240 128 Z M 240 160 C 284.375 160 320 195.625 320 240 C 320 284.375 284.375 320 240 320 C 195.625 320 160 284.375 160 240 C 160 195.625 195.625 160 240 160 Z M 240 160 "/>
</g>
</svg>