<svg xmlns="http://www.w3.org/2000/svg" xmlns:xlink="http://www.w3.org/1999/xlink" viewBox="0 0 512 512" style="fill: rgb(0, 0, 0);" original_string_length="1677">
<g id="__id128_s5niqw6kcy">
<path style="stroke: none; fill-rule: nonzero; fill: rgb(0, 0, 0); fill-opacity: 1;" d="M 409.601562 68.265625 L 102.398438 68.265625 C 83.542969 68.265625 68.265625 83.542969 68.265625 102.398438 L 68.265625 409.601562 C 68.265625 428.457031 83.542969 443.734375 102.398438 443.734375 L 409.601562 443.734375 C 428.457031 443.734375 443.734375 428.457031 443.734375 409.601562 L 443.734375 102.398438 C 443.734375 83.542969 428.457031 68.265625 409.601562 68.265625 Z M 186.949219 375.464844 L 136.601562 375.464844 L 136.601562 213.46875 L 186.949219 213.46875 Z M 161.261719 190.308594 C 145.03125 190.308594 131.910156 177.152344 131.910156 160.957031 C 131.910156 144.757812 145.050781 131.617188 161.261719 131.617188 C 177.441406 131.617188 190.601562 144.777344 190.601562 160.957031 C 190.601562 177.152344 177.441406 190.308594 161.261719 190.308594 Z M 375.535156 375.464844 L 325.222656 375.464844 L 325.222656 296.6875 C 325.222656 277.898438 324.882812 253.730469 299.058594 253.730469 C 272.863281 253.730469 268.835938 274.191406 268.835938 295.320312 L 268.835938 375.464844 L 218.523438 375.464844 L 218.523438 213.46875 L 266.820312 213.46875 L 266.820312 235.605469 L 267.503906 235.605469 C 274.226562 222.875 290.644531 209.441406 315.136719 209.441406 C 366.113281 209.441406 375.535156 242.996094 375.535156 286.617188 Z M 375.535156 375.464844 "/>
</g>
</svg>