<svg xmlns="http://www.w3.org/2000/svg" xmlns:xlink="http://www.w3.org/1999/xlink" viewBox="0 0 512 512" style="fill: rgb(0, 0, 0);" original_string_length="1253">
<g id="__id122_s5niqw6kcy">
<path style="stroke: none; fill-rule: nonzero; fill: rgb(0, 0, 0); fill-opacity: 1;" d="M 480 105.5 C 463.25 112.75 446.375 118.125 427.75 119.875 C 446.375 109.125 461.375 91 468.75 71.25 C 450.125 82 431.5 89.25 411 92.875 C 392.25 74.875 368 64 341.875 64 C 291.5 64 250.375 103.75 250.375 152.5 C 250.375 159.625 250.375 166.875 252.25 172.375 C 156 172.375 90 118.125 45.25 64 C 35.875 76.625 32.125 92.875 32.125 109.125 C 32.125 139.75 49 166.875 73.25 183.125 C 58.25 181.375 43.375 177.75 32.125 172.375 C 32.125 172.375 32.125 172.375 32.125 174.125 C 32.125 217.5 63.875 253.5 105 260.75 C 97.5 262.5 90 264.375 80.625 264.375 C 75.125 264.375 69.5 264.375 63.875 262.625 C 75.125 298.75 127.25 340.25 168.25 340.25 C 136.5 363.625 107 384 48 384 C 40.5 384 46.5 384 32 384 C 73 409.25 121.625 416 172 416 C 341.875 416 433.375 280.625 433.375 163.25 C 433.375 159.625 433.375 156.125 433.375 152.5 C 452 139.75 467 123.625 480 105.5 "/>
</g>
</svg>