<svg xmlns="http://www.w3.org/2000/svg" xmlns:xlink="http://www.w3.org/1999/xlink" viewBox="0 0 512 512" style="fill: rgb(0, 0, 0);" original_string_length="1198">
<g id="__id116_s5niqw6kcy">
<path style="stroke: none; fill-rule: nonzero; fill: rgb(0, 0, 0); fill-opacity: 1;" d="M 460.414062 131.96875 C 455.507812 113.621094 441.046875 99.15625 422.699219 94.25 C 389.417969 85.332031 256 85.332031 256 85.332031 C 256 85.332031 122.582031 85.332031 89.300781 94.25 C 70.953125 99.15625 56.492188 113.621094 51.585938 131.96875 C 42.667969 165.246094 42.667969 256 42.667969 256 C 42.667969 256 42.667969 346.753906 51.585938 380.03125 C 56.492188 398.378906 70.953125 412.84375 89.300781 417.75 C 122.582031 426.667969 256 426.667969 256 426.667969 C 256 426.667969 389.417969 426.667969 422.699219 417.75 C 441.066406 412.84375 455.507812 398.378906 460.414062 380.03125 C 469.332031 346.753906 469.332031 256 469.332031 256 C 469.332031 256 469.332031 165.246094 460.414062 131.96875 Z M 213.332031 329.898438 L 213.332031 182.101562 L 341.332031 256 Z M 213.332031 329.898438 "/>
</g>
</svg>